# xmcd
#
# Track frame offsets: 
#        150
#        18925
#        43083
#        70070
#        99740
#        120806
#        146527
#        178246
#        208679
#        232042
#        261368
#
# Disc length: 3859 seconds
#
# Revision: 1
# Processed by: cddbd v1.5.2PL0 Copyright (c) Steve Scherf et al.
# Submitted via: ExactAudioCopy v1.0b3
#
DISCID=9b0f110b
DTITLE=Nighthawks - Selection
DYEAR=2007
DGENRE=Jazz
TTITLE0=Nightflight
TTITLE1=Last call for passenger W.
TTITLE2=Descend
TTITLE3=Mañana
TTITLE4=Managing the Beatles
TTITLE5=Define the day
TTITLE6=Direction downtown
TTITLE7=Hard night's day
TTITLE8=Reception in Brazil
TTITLE9=Casino
TTITLE10=Bar next to the Roxy
EXTD=YEAR: 2007
EXTT0=
EXTT1=
EXTT2=
EXTT3=
EXTT4=
EXTT5=
EXTT6=
EXTT7=
EXTT8=
EXTT9=
EXTT10=
PLAYORDER=
